<?xml version="1.0" standalone="no"?>
<!DOCTYPE svg PUBLIC "-//W3C//DTD SVG 20010904//EN"
 "http://www.w3.org/TR/2001/REC-SVG-20010904/DTD/svg10.dtd">
<svg version="1.0" xmlns="http://www.w3.org/2000/svg"
 width="700.000000pt" height="700.000000pt" viewBox="0 0 700.000000 700.000000"
 preserveAspectRatio="xMidYMid meet">
<metadata>
Created by potrace 1.14, written by Peter Selinger 2001-2017
</metadata>
<g transform="translate(0.000000,700.000000) scale(0.100000,-0.100000)"
fill="#000000" stroke="none">
<path d="M3330 6508 c-41 -72 -105 -181 -141 -242 -36 -61 -104 -176 -151
-256 -47 -80 -132 -224 -189 -320 -57 -96 -114 -194 -127 -217 l-22 -43 362
-1 c200 0 515 -1 701 -2 225 -2 337 1 337 8 0 5 -9 21 -20 35 -11 14 -20 29
-20 34 0 5 -20 42 -45 83 -25 40 -45 75 -45 77 0 2 -30 55 -66 117 -36 63 -80
139 -97 169 -16 30 -63 112 -104 183 -40 70 -73 129 -73 131 0 2 -17 33 -38
67 -21 35 -52 89 -69 119 -80 143 -107 190 -112 190 -3 -1 -40 -60 -81 -132z"/>
<path d="M2691 5130 c-5 -3 -9 -144 -10 -315 -3 -344 -6 -665 -16 -1935 -4
-476 -8 -984 -9 -1130 l-1 -265 460 -2 c889 -4 955 -4 964 1 5 3 9 189 11 413
1 225 3 577 5 783 4 411 17 2043 19 2289 1 95 -3 155 -9 157 -16 5 -1406 9
-1414 4z"/>
<path d="M2649 987 c-2 -368 -1 -375 53 -459 39 -62 89 -105 158 -137 62 -28
102 -30 650 -31 293 -1 328 5 413 61 49 32 108 104 131 160 8 19 17 59 20 89
9 83 11 498 3 506 -4 4 -327 9 -717 11 l-710 3 -1 -203z"/>
</g>
</svg>
